<?xml version="1.0" encoding="UTF-8" standalone="no"?>
<svg
   xmlns:dc="http://purl.org/dc/elements/1.1/"
   xmlns:cc="http://creativecommons.org/ns#"
   xmlns:rdf="http://www.w3.org/1999/02/22-rdf-syntax-ns#"
   xmlns:svg="http://www.w3.org/2000/svg"
   xmlns="http://www.w3.org/2000/svg"
   xmlns:sodipodi="http://sodipodi.sourceforge.net/DTD/sodipodi-0.dtd"
   xmlns:inkscape="http://www.inkscape.org/namespaces/inkscape"
   version="1.0"
   width="270.77954"
   height="371.76379"
   viewBox="0 0 80.42 108.92"
   stroke-miterlimit="10"
   style="font-weight:normal;fill-rule:nonzero;stroke-miterlimit:10;font-family:Times New Roman"
   id="svg2"
   sodipodi:version="0.32"
   inkscape:version="0.46"
   sodipodi:docname="laurent_scarabe.svg"
   inkscape:output_extension="org.inkscape.output.svg.inkscape">
  <metadata
     id="metadata283">
    <rdf:RDF>
      <cc:Work
         rdf:about="">
        <dc:format>image/svg+xml</dc:format>
        <dc:type
           rdf:resource="http://purl.org/dc/dcmitype/StillImage" />
      </cc:Work>
    </rdf:RDF>
  </metadata>
  <sodipodi:namedview
     inkscape:window-height="480"
     inkscape:window-width="640"
     inkscape:pageshadow="2"
     inkscape:pageopacity="0.0"
     guidetolerance="10.0"
     gridtolerance="10.0"
     objecttolerance="10.0"
     borderopacity="1.0"
     bordercolor="#666666"
     pagecolor="#ffffff"
     id="base"
     showgrid="false" />
<!--Exported from TpX drawing-->  <title
     id="title4" />
  <desc
     id="desc6">Imported from scarab  .wmf 29/03/2008 22:08:26</desc>
  <defs
     id="defs8">
    <inkscape:perspective
       sodipodi:type="inkscape:persp3d"
       inkscape:vp_x="0 : 192.96851 : 1"
       inkscape:vp_y="0 : 1000 : 0"
       inkscape:vp_z="284.95276 : 192.96851 : 1"
       inkscape:persp3d-origin="142.47638 : 128.64567 : 1"
       id="perspective285" />
  </defs>
  <polygon
     points="21.49,51.59 20,52.37 19.35,54.6 19.4,57.85 19.91,61.65 19.91,65.08 19.12,69.07 19.12,73.16 19.49,78.26 20.79,83.69 23.11,88.79 26.92,93.75 29.79,96.44 32.39,97.97 35.87,99.04 38.65,99.41 29.79,93.8 24.13,86.38 22.93,81.32 21.58,76.03 21.12,70 21.77,63.74 20.28,56.13 20.79,54.55 23.2,51.82 21.49,51.59 "
     id="polygon10"
     style="fill:#006666;stroke:none"
     transform="matrix(1.0386236,0,0,1.0386236,-2.0772472,-2.0772472)" />
  <polygon
     points="56.52,52.33 57.91,51.49 59.02,51.73 60.04,53.21 60.18,55.58 60.46,58.54 60.14,63.18 60.27,65.32 60.88,67.36 61.48,70.56 61.57,74.73 60.78,79.51 59.44,85.31 57.49,89.44 55.91,91.9 53.36,94.63 51.6,96.16 49.56,97.42 47.52,98.34 45.38,99.22 43.66,99.55 41.72,99.83 38.98,99.73 34.66,98.2 32.62,96.81 29.56,94.45 26.03,90.6 23.34,86.51 22.14,83.36 20.93,79.09 21.21,76.82 22.83,80.99 22.97,76.87 29.19,86.33 38.65,92.03 44.45,90.27 53.32,81.64 57.21,65.97 56.52,52.33 "
     id="polygon12"
     style="fill:#003333;stroke:none"
     transform="matrix(1.0386236,0,0,1.0386236,-2.0772472,-2.0772472)" />
  <polygon
     points="41.21,96.63 39.67,96.53 34.34,94.4 28.91,88.93 24.27,80.81 21.81,60.59 21.12,54.6 24.13,51.82 27.24,51.03 33.87,51.49 41.58,51.4 57.17,50.38 53.59,55.53 41.21,96.63 "
     id="polygon14"
     style="fill:#009999;stroke:none"
     transform="matrix(1.0386236,0,0,1.0386236,-2.0772472,-2.0772472)" />
  <polygon
     points="23.06,75.61 25.66,81.6 29.28,86.33 32.48,90.04 36.33,93.06 41.72,94.91 41.62,97.37 37.86,96.44 32.9,94.4 28.17,90.18 24.55,82.8 23.06,75.61 "
     id="polygon16"
     style="fill:#006666;stroke:none"
     transform="matrix(1.0386236,0,0,1.0386236,-2.0772472,-2.0772472)" />
  <polygon
     points="34.9,37.95 27.19,39.43 24.36,43.1 24.78,50.15 29.33,52 46.26,51.35 45.1,40.64 39.26,38.51 34.9,37.95 "
     id="polygon18"
     style="fill:#009999;stroke:none"
     transform="matrix(1.0386236,0,0,1.0386236,-2.0772472,-2.0772472)" />
  <polygon
     points="49.51,19.02 50.48,18.79 52.29,19.39 52.85,20.32 53.78,20.74 54.94,21.44 56.33,22.08 56.61,20.51 57.44,19.3 58.09,19.58 58.79,19.39 59.11,19.9 59.76,20.18 59.95,21.25 59.3,22.55 58.56,23.34 56.56,23.11 55.5,22.69 53.32,21.53 51.55,20.6 50.11,20.6 49.51,19.02 "
     id="polygon20"
     style="fill:#9c826b;stroke:none"
     transform="matrix(1.0386236,0,0,1.0386236,-2.0772472,-2.0772472)" />
  <polygon
     points="21.12,20.55 21.25,19.67 22.28,19.16 23.11,19.39 23.34,19.02 23.85,19.63 24.27,21.57 25.2,21.53 26.13,20.74 26.64,21.02 27.7,19.9 28.21,19.67 29.28,18.7 30.53,18.37 32.02,18.93 30.95,20.32 29.47,20.18 28.63,20.18 28.21,20.83 26.87,21.53 26.13,21.99 24.55,22.87 22.83,22.92 21.39,22.08 21.16,21.25 21.12,20.55 "
     id="polygon22"
     style="fill:#9c826b;stroke:none"
     transform="matrix(1.0386236,0,0,1.0386236,-2.0772472,-2.0772472)" />
  <polygon
     points="15.83,73.9 15.73,72.55 16.52,72.04 17.68,73.02 17.64,73.99 15.83,73.9 "
     id="polygon24"
     style="fill:#ffffff;stroke:none"
     transform="matrix(1.0386236,0,0,1.0386236,-2.0772472,-2.0772472)" />
  <polygon
     points="63.06,70.56 63.85,70.28 64.91,71.86 63.94,72.46 63.1,71.67 63.06,70.56 "
     id="polygon26"
     style="fill:#ffffff;stroke:none"
     transform="matrix(1.0386236,0,0,1.0386236,-2.0772472,-2.0772472)" />
  <polygon
     points="61.39,37.72 63.71,38.92 62.92,40.13 61.39,37.72 "
     id="polygon28"
     style="fill:#ffffff;stroke:none"
     transform="matrix(1.0386236,0,0,1.0386236,-2.0772472,-2.0772472)" />
  <polygon
     points="17.45,41.47 16.52,41.29 15.83,40.13 16.52,39.48 18.01,38.69 17.45,41.47 "
     id="polygon30"
     style="fill:#ffffff;stroke:none"
     transform="matrix(1.0386236,0,0,1.0386236,-2.0772472,-2.0772472)" />
  <polygon
     points="19.72,54.69 18.84,53.81 18.98,52.98 20.14,52.7 19.72,54.69 "
     id="polygon32"
     style="fill:#ffffff;stroke:none"
     transform="matrix(1.0386236,0,0,1.0386236,-2.0772472,-2.0772472)" />
  <polygon
     points="59.76,51.68 61.39,52.24 61.06,55.11 60.04,54.09 59.76,51.68 "
     id="polygon34"
     style="fill:#ffffff;stroke:none"
     transform="matrix(1.0386236,0,0,1.0386236,-2.0772472,-2.0772472)" />
  <polygon
     points="60.46,17.77 60.74,16.98 61.71,16.15 62.36,14.62 62.92,13.46 63.66,15.27 66.03,15.54 65.1,17.03 64.54,18.98 65.24,20.42 66.72,20.79 65.61,21.99 65.66,24.87 66.68,25.52 65.75,26.82 65.84,28.95 66.35,29.65 65.84,30.43 64.96,35.17 63.75,37.9 63.43,39.11 62.36,38.6 62.41,38.88 63.29,39.43 62.46,39.76 60.51,37.02 61.94,36 63.01,32.01 62.87,25.1 60.46,17.77 "
     id="polygon36"
     style="fill:#a39494;stroke:none"
     transform="matrix(1.0386236,0,0,1.0386236,-2.0772472,-2.0772472)" />
  <polygon
     points="60.18,53.91 60.46,52.51 61.02,52.24 61.16,52.79 60.74,53.26 60.46,54.42 60.92,54.88 61.76,54.55 62.36,53.26 61.81,52.51 60.69,51.63 59.39,51.63 60.18,53.91 "
     id="polygon38"
     style="fill:#a39494;stroke:none"
     transform="matrix(1.0386236,0,0,1.0386236,-2.0772472,-2.0772472)" />
  <polygon
     points="62.22,53.77 63.01,53.91 65.52,55.95 66.54,57.99 67.74,59.43 69,59.94 68.53,60.49 68.9,61.51 69.65,62.58 71.09,63.14 70.16,63.6 68.44,63.65 67.14,63.46 66.21,62.58 63.06,55.99 61.85,54.55 62.22,53.77 "
     id="polygon40"
     style="fill:#a39494;stroke:none"
     transform="matrix(1.0386236,0,0,1.0386236,-2.0772472,-2.0772472)" />
  <polygon
     points="63.15,70.93 63.8,70.51 64.08,71.07 64.31,71.72 63.94,72.37 62.87,72 62.46,73.67 63.75,74.45 63.94,79.88 63.01,83.69 61.57,86.93 59.58,90.78 59.07,92.08 59.86,93.38 60.74,92.96 62.04,94.21 62.5,92.96 62.87,91.15 63.38,89.99 64.4,89.44 64.45,88.69 64.31,87.86 64.96,86.56 65.7,85.4 65.24,83.55 65.94,79.42 65.66,75.66 65.24,73.39 65.61,72.46 65.19,71.16 64.4,70 62.73,68.84 63.15,70.93 "
     id="polygon42"
     style="fill:#a39494;stroke:none"
     transform="matrix(1.0386236,0,0,1.0386236,-2.0772472,-2.0772472)" />
  <polygon
     points="16.34,72.55 17.03,72.74 17.22,73.62 15.69,73.67 15.22,75.57 14.62,80.81 14.62,84.84 14.67,86.61 15.64,87.49 16.2,88.51 15.87,91.66 16.34,91.99 17.08,91.66 17.22,93.15 17.96,93.84 18.93,94.82 20.09,93.66 21.35,93.15 18.33,87.54 17.22,83.31 16.71,79.42 16.99,76.31 17.31,74.5 18.01,73.8 17.4,69.54 15.97,70.74 15.59,72.32 15.69,73.11 16.34,72.55 "
     id="polygon44"
     style="fill:#a39494;stroke:none"
     transform="matrix(1.0386236,0,0,1.0386236,-2.0772472,-2.0772472)" />
  <polygon
     points="51.55,27.7 52.57,26.31 54.71,28.35 57.35,31.5 59.07,34.05 60.32,36.33 61.39,39.11 61.34,43.61 60.41,46.72 58.37,50.06 58.09,50.57 59.3,51.26 59.11,52.14 55.82,51.35 57.07,49.68 59.35,44.86 59.63,39.25 57.68,34.33 55.03,30.62 52.99,29.09 51.55,27.7 "
     id="polygon46"
     style="fill:#00cccc;stroke:none"
     transform="matrix(1.0386236,0,0,1.0386236,-2.0772472,-2.0772472)" />
  <polygon
     points="27.61,26.35 25.24,28.49 23.2,30.53 21.72,32.29 20.09,35.07 18.8,38.69 18.24,43.79 18.56,46.95 19.07,48.99 20.33,50.89 21.3,51.26 19.4,44.26 21.53,35.72 25.38,30.2 27.84,27.33 27.61,26.35 "
     id="polygon48"
     style="fill:#00cccc;stroke:none"
     transform="matrix(1.0386236,0,0,1.0386236,-2.0772472,-2.0772472)" />
  <polygon
     points="10.68,63.04 13,62.25 14.02,59.33 16.1,56.32 17.45,54.79 18.15,54.32 19.26,54.69 19.35,53.86 19.03,53.49 19.03,53.12 19.35,52.98 19.82,53.07 19.86,52.61 18.93,52.51 18.15,53.07 15.78,54.42 14.57,55.44 13.69,55.53 13.88,56.36 13.27,57.38 12.07,57.89 11.19,58.08 11.6,58.64 11.79,59.29 10.35,60.45 10.86,61.05 11,61.93 10.68,63.04 "
     id="polygon50"
     style="fill:#a39494;stroke:none"
     transform="matrix(1.0386236,0,0,1.0386236,-2.0772472,-2.0772472)" />
  <polygon
     points="16.66,40.08 16.57,40.45 16.71,40.59 16.94,40.55 17.13,40.31 17.03,39.94 17.59,39.43 18.7,38.18 18.56,39.43 18.56,43.33 15.83,40.59 16.06,40.08 16.66,40.08 "
     id="polygon52"
     style="fill:#a39494;stroke:none"
     transform="matrix(1.0386236,0,0,1.0386236,-2.0772472,-2.0772472)" />
  <polygon
     points="19.03,13.23 19.72,16.1 20.47,17.21 20.42,18.65 19.58,19.77 18.38,22.36 17.77,24.36 16.99,26.96 16.57,30.81 16.8,33.77 17.03,36.14 17.54,38.13 16.8,39.76 15.78,39.85 14.85,37.53 14.16,34.66 14.11,31.97 14.3,30.48 13.6,29.51 14.2,28.35 14.06,27 14.48,25.7 14.06,23.34 14.62,22.36 15.22,20.28 15.22,19.12 16.2,18.19 16.38,16.33 15.87,14.71 17.36,15.22 18.33,15.03 19.03,13.23 "
     id="polygon54"
     style="fill:#a39494;stroke:none"
     transform="matrix(1.0386236,0,0,1.0386236,-2.0772472,-2.0772472)" />
  <polygon
     points="61.9,68.1 62.55,68.33 62.41,74.32 61.53,74.5 61.9,68.1 "
     id="polygon56"
     style="fill:#17857b;stroke:none"
     transform="matrix(1.0386236,0,0,1.0386236,-2.0772472,-2.0772472)" />
  <polygon
     points="19.4,56.78 18.29,61.79 18.1,66.71 17.5,68.66 17.77,74.41 18.84,74.83 23.44,81.55 22,64.62 19.4,56.78 "
     id="polygon58"
     style="fill:#003333;stroke:none"
     transform="matrix(1.0386236,0,0,1.0386236,-2.0772472,-2.0772472)" />
  <polygon
     points="33.64,16.57 34.99,14.71 37.08,13.18 39.58,12.34 43.62,12.99 45.15,14.11 42.83,13.87 39.49,13.46 36.06,15.22 33.64,16.57 "
     id="polygon60"
     style="fill:#bda390;stroke:none"
     transform="matrix(1.0386236,0,0,1.0386236,-2.0772472,-2.0772472)" />
  <polygon
     points="31.42,21.34 31.69,19.67 33.18,17.77 33.27,16.98 37.08,13.78 39.44,13.04 41.25,13.13 47.1,17.08 46.73,18.47 44.41,21.44 39.49,22.18 31.42,21.34 "
     id="polygon62"
     style="fill:#009999;stroke:none"
     transform="matrix(1.0386236,0,0,1.0386236,-2.0772472,-2.0772472)" />
  <polygon
     points="36.38,18.88 37.12,19.58 37.82,20.04 38.89,20.6 40.32,20.88 40.09,20 38.75,19.72 37.77,19.39 36.38,18.88 "
     id="polygon64"
     style="fill:#006666;stroke:none"
     transform="matrix(1.0386236,0,0,1.0386236,-2.0772472,-2.0772472)" />
  <polygon
     points="36.06,24.08 38.28,23.57 42.41,23.66 43.94,23.52 45.2,24.54 36.06,24.08 "
     id="polygon66"
     style="fill:#006666;stroke:none"
     transform="matrix(1.0386236,0,0,1.0386236,-2.0772472,-2.0772472)" />
  <polygon
     points="42.97,22.78 44.04,20.79 45.47,18.93 46.82,17.63 48.21,18 49.28,20.6 45.47,23.24 44.82,24.5 43.29,23.57 42.97,22.78 "
     id="polygon68"
     style="fill:#006666;stroke:none"
     transform="matrix(1.0386236,0,0,1.0386236,-2.0772472,-2.0772472)" />
  <polygon
     points="40.51,13.6 41.16,12.95 42.13,13.13 42.78,13.36 43.71,13.64 44.31,13.78 45.57,14.8 46.17,15.96 43.2,19.35 41.72,19.02 40.51,13.6 "
     id="polygon70"
     style="fill:#006666;stroke:none"
     transform="matrix(1.0386236,0,0,1.0386236,-2.0772472,-2.0772472)" />
  <polygon
     points="33.78,17.59 34.52,16.1 35.59,15.13 36.84,14.06 38.93,13.41 39.67,13.23 39.91,14.29 39.86,15.64 40,17.26 40.18,18.33 39.63,18.7 38.93,19.02 38.05,18.56 37.59,17.63 36.8,17.49 36.1,17.68 35.03,19.02 33.78,17.59 "
     id="polygon72"
     style="fill:#006666;stroke:none"
     transform="matrix(1.0386236,0,0,1.0386236,-2.0772472,-2.0772472)" />
  <polygon
     points="32.2,20.93 32.62,20.18 33.18,19.86 33.69,20.18 34.62,20.74 35.17,20.79 35.45,20.51 33.55,17.82 35.82,20.09 36.94,21.02 35.13,22.97 32.2,20.93 "
     id="polygon74"
     style="fill:#006666;stroke:none"
     transform="matrix(1.0386236,0,0,1.0386236,-2.0772472,-2.0772472)" />
  <polygon
     points="31.18,21.9 31.79,21.25 31.83,20.42 31.97,19.77 32.58,19.35 33.04,19.35 33.69,19.63 34.57,20.28 33.55,18.56 32.71,18.42 31.69,18.98 31.04,19.77 30.77,20.83 30.91,22.36 31.18,21.9 "
     id="polygon76"
     style="fill:#006666;stroke:none"
     transform="matrix(1.0386236,0,0,1.0386236,-2.0772472,-2.0772472)" />
  <polygon
     points="60.27,58.31 59.53,62.3 60.37,68.01 61.3,72.46 62.08,67.5 61.94,63.83 61.39,60.96 60.27,58.31 "
     id="polygon78"
     style="fill:#006666;stroke:none"
     transform="matrix(1.0386236,0,0,1.0386236,-2.0772472,-2.0772472)" />
  <polygon
     points="25.01,50.7 28.96,50.89 30.21,52 22.32,51.91 21.12,51.49 20.09,49.27 19.31,46.81 19.17,44.91 19.4,42.45 19.72,40.31 20.7,37.35 21.72,34.84 23.67,31.78 25.11,30.02 27.24,27.79 27.84,26.4 29.98,27 31.32,26.96 33.64,26.4 37.12,25.98 42.32,25.84 48.03,26.35 50.48,26.35 51.83,25.84 52.53,26.17 52.2,27.6 52.85,28.53 54.99,30.25 56.52,31.97 58.23,34.33 59.25,36.46 60.14,38.55 60.37,40.73 60.27,43.28 59.53,45.88 59.02,47.83 57.54,49.87 56.61,50.61 51.83,51.08 47.1,32.89 27.75,34.1 25.01,50.7 "
     id="polygon80"
     style="fill:#009999;stroke:none"
     transform="matrix(1.0386236,0,0,1.0386236,-2.0772472,-2.0772472)" />
  <polygon
     points="23.95,49.82 23.53,50.43 22.46,50.43 21.49,49.96 20.79,49.08 20.14,47.09 19.96,43.84 20.23,41.57 20.56,40.64 21.25,40.87 21.86,40.73 22.6,40.13 22.65,38.69 22.65,36.51 23.34,34.79 24.87,32.66 26.03,31.27 27.89,30.02 29.84,29.14 31.55,28.58 35.08,28.07 38.38,27.84 41.02,27.79 43.76,27.88 47.14,28.07 49.05,27.88 50.53,27.47 51.27,26.63 51.78,26.86 51.64,27.74 52.25,28.72 54.66,30.81 56.33,32.57 57.21,34.01 56.7,35.3 56.84,35.82 57.58,35.03 58.47,36.6 58.79,37.86 59.3,39.85 59.35,42.36 59.16,44.63 58.79,46.21 58.33,47.78 57.49,49.17 56.52,50.15 54.29,50.7 50.02,50.38 48.54,33.59 31.74,33.4 24.08,46.67 23.95,49.82 "
     id="polygon82"
     style="fill:#006666;stroke:none"
     transform="matrix(1.0386236,0,0,1.0386236,-2.0772472,-2.0772472)" />
  <polygon
     points="31.97,26.31 31.14,25.19 30.67,23.94 30.72,22.32 32.71,20.51 33.83,21.02 34.85,22.27 35.41,23.99 36.01,24.45 39.26,24.27 43.85,24.4 45.15,24.36 45.33,22.92 45.89,22.08 46.31,21.02 47.24,20.28 48.21,20.14 49.28,21.2 50.11,22.83 49.37,24.68 49.05,26.07 41.39,25.75 38.33,25.89 33.04,26.72 31.97,26.31 "
     id="polygon84"
     style="fill:#9c826b;stroke:none"
     transform="matrix(1.0386236,0,0,1.0386236,-2.0772472,-2.0772472)" />
  <polygon
     points="41.9,94.63 40.97,64.11 41.02,62.49 41.81,60.96 43.01,59.43 44.04,58.13 45.06,56.41 45.89,53.53 48.03,53.12 45.57,56.78 44.27,58.73 42.97,61.05 42.32,64.48 42.37,70.84 42.88,65.97 43.39,63.37 43.94,61.1 44.87,59.05 46.08,57.25 48.44,52.84 52.67,52.19 57.4,51.59 58,52.79 58.51,53.91 58.28,57.66 57.49,75.2 57.03,84.75 56.42,87.26 55.54,89.95 54.52,91.66 53.36,93.1 52.06,94.08 50.07,95.37 48.49,96.53 44.82,97.79 42.74,97.28 41.9,94.63 "
     id="polygon86"
     style="fill:#006666;stroke:none"
     transform="matrix(1.0386236,0,0,1.0386236,-2.0772472,-2.0772472)" />
  <polygon
     points="24.69,50.8 23.76,49.96 22.97,46.02 25.52,39.39 28.54,35.63 43.15,34.01 48.63,36.05 50.58,45.42 48.12,50.7 44.36,51.59 42.5,50.61 41.9,49.68 41.72,46.95 41.11,42.77 40.18,40.41 40.28,43.05 40.37,49.08 39.49,43.65 38.24,41.24 36.7,40.08 35.17,39.8 32.25,40.04 29.98,40.87 28.17,42.12 27.01,43.28 26.22,44.91 25.94,46.44 26.13,48.15 26.82,49.08 27.84,49.78 29.98,50.8 26.73,50.98 24.69,50.8 "
     id="polygon88"
     style="fill:#006666;stroke:none"
     transform="matrix(1.0386236,0,0,1.0386236,-2.0772472,-2.0772472)" />
  <polygon
     points="35.41,24.08 35.5,22.08 36.75,20.88 38.42,21.3 39.91,21.67 41.48,21.3 43.01,20.28 45.1,18.61 44.5,19.95 44.41,20.6 43.2,22.18 43.39,23.38 37.45,23.66 35.41,24.08 "
     id="polygon90"
     style="fill:#9c826b;stroke:none"
     transform="matrix(1.0386236,0,0,1.0386236,-2.0772472,-2.0772472)" />
  <polygon
     points="33.23,17.21 33.69,16.89 34.57,15.45 35.31,14.9 36.89,13.69 38.65,12.72 40.83,12.48 43.62,13.13 44.31,13.6 45.57,14.76 47.84,17.54 48.3,16.84 48.63,14.76 48.26,12.99 47.47,11.23 46.4,10.26 45.52,10.02 43.99,10.21 45.24,12.58 44.36,11.74 43.43,10.91 42.64,10.49 41.9,10.49 40.83,10.77 39.12,10.49 37.82,11.05 36.66,12.25 35.87,13.41 36.06,11.69 36.8,10.12 35.92,9.98 34.99,9.98 34.06,10.53 33.27,11.65 32.39,13.83 32.07,15.45 32.25,16.29 33.23,17.21 "
     id="polygon92"
     style="fill:#9c826b;stroke:none"
     transform="matrix(1.0386236,0,0,1.0386236,-2.0772472,-2.0772472)" />
  <polygon
     points="44.82,67.17 44.87,70.14 45.06,73.9 45.1,78.07 45.47,75.38 45.57,71.72 45.33,69.12 44.82,67.17 "
     id="polygon94"
     style="fill:#009999;stroke:none"
     transform="matrix(1.0386236,0,0,1.0386236,-2.0772472,-2.0772472)" />
  <polygon
     points="47.33,65.41 47.61,79.19 47.93,74.36 47.93,70.74 47.79,68.61 47.33,65.41 "
     id="polygon96"
     style="fill:#009999;stroke:none"
     transform="matrix(1.0386236,0,0,1.0386236,-2.0772472,-2.0772472)" />
  <polygon
     points="49.88,65.92 50.07,69.72 50.11,75.75 50.16,79.56 50.62,74.13 50.48,70.47 50.3,68.47 49.88,65.92 "
     id="polygon98"
     style="fill:#009999;stroke:none"
     transform="matrix(1.0386236,0,0,1.0386236,-2.0772472,-2.0772472)" />
  <polygon
     points="23.95,50.24 24.69,50.84 27.52,50.94 26.5,50.29 25.48,49.36 24.92,47.97 24.92,46.95 25.11,45.19 25.62,43.28 26.68,41.66 27.89,40.5 29.24,39.43 31.69,38.69 34.43,38.23 37.45,38.18 38.51,38.78 39.4,39.85 40.09,41.43 40.09,39.06 40.83,38.37 42.23,38.46 43.48,38.92 44.41,39.76 45.01,41.15 45.15,42.54 44.82,44.4 44.27,46.16 43.8,47.6 43.66,48.9 43.99,50.1 44.69,50.7 45.89,51.22 49.28,50.43 47.98,35.91 43.76,34.47 26.82,36.97 23.67,43.47 23.2,48.06 23.95,50.24 "
     id="polygon100"
     style="fill:#003333;stroke:none"
     transform="matrix(1.0386236,0,0,1.0386236,-2.0772472,-2.0772472)" />
  <polygon
     points="49.56,52.84 50.76,56.13 51.69,62.72 52.11,74.87 51.46,85.63 49.56,91.9 50.11,84.01 50.72,77.56 50.95,73.2 50.76,67.31 50.39,59.84 49.56,52.84 "
     id="polygon102"
     style="fill:#003333;stroke:none"
     transform="matrix(1.0386236,0,0,1.0386236,-2.0772472,-2.0772472)" />
  <polygon
     points="52.25,52.42 53.41,54.32 54.15,56.27 54.8,58.36 55.12,61.28 55.54,66.15 55.54,57.52 53.92,52.42 52.25,52.42 "
     id="polygon104"
     style="fill:#003333;stroke:none"
     transform="matrix(1.0386236,0,0,1.0386236,-2.0772472,-2.0772472)" />
  <polygon
     points="50.11,52.61 51.18,55.39 52.16,58.92 52.9,62.63 53.32,67.03 53.32,72.23 52.53,82.76 53.83,79.14 54.38,70.74 53.83,61.14 51.92,55.2 50.11,52.61 "
     id="polygon106"
     style="fill:#003333;stroke:none"
     transform="matrix(1.0386236,0,0,1.0386236,-2.0772472,-2.0772472)" />
  <polygon
     points="48.91,53.26 49.23,83.31 47.89,90.5 47.19,88.42 47.89,80.21 48.3,72.83 48.16,64.11 47.75,57.85 48.26,53.49 48.91,53.26 "
     id="polygon108"
     style="fill:#003333;stroke:none"
     transform="matrix(1.0386236,0,0,1.0386236,-2.0772472,-2.0772472)" />
  <polygon
     points="44.69,90.23 45.61,79.14 45.94,72.65 45.85,67.54 45.71,64.16 45.61,60.96 46.03,59.15 46.91,56.46 46.82,61.28 46.77,71.58 46.68,90.5 44.87,94.12 44.69,90.23 "
     id="polygon110"
     style="fill:#003333;stroke:none"
     transform="matrix(1.0386236,0,0,1.0386236,-2.0772472,-2.0772472)" />
  <polygon
     points="44.22,62.53 43.62,64.44 43.29,66.89 43.06,69.12 43.25,73.8 43.29,80.39 43.48,94.35 44.36,86.93 44.69,76.82 44.36,66.99 45.01,61.14 44.22,62.53 "
     id="polygon112"
     style="fill:#003333;stroke:none"
     transform="matrix(1.0386236,0,0,1.0386236,-2.0772472,-2.0772472)" />
  <polygon
     points="43.8,59.52 42.88,60.26 42.37,61.05 41.9,61.93 41.58,62.77 41.48,64.02 41.48,66.52 41.99,78.26 42.32,64.39 42.92,61.56 43.8,59.52 "
     id="polygon114"
     style="fill:#003333;stroke:none"
     transform="matrix(1.0386236,0,0,1.0386236,-2.0772472,-2.0772472)" />
  <polygon
     points="22.65,67.5 24.18,76.82 24.6,80.39 25.01,83.27 26.22,87.12 27.01,89.85 25.11,86.28 23.9,81.13 23.25,75.43 22.65,67.5 "
     id="polygon116"
     style="fill:#00524f;stroke:none"
     transform="matrix(1.0386236,0,0,1.0386236,-2.0772472,-2.0772472)" />
  <polygon
     points="23.48,72.74 23.34,65.73 22.37,60.12 21.95,57.29 22.09,56.18 22.55,55.16 23.2,54.46 24.36,54.04 25.62,54.14 25.71,53.02 23.44,52.79 21.63,54.28 21.07,57.71 22.23,67.5 22.97,73.62 23.48,72.74 "
     id="polygon118"
     style="fill:#00524f;stroke:none"
     transform="matrix(1.0386236,0,0,1.0386236,-2.0772472,-2.0772472)" />
  <polygon
     points="25.11,54.97 26.31,53.26 27.52,52.56 29.28,52.89 28.77,53.86 27.61,53.67 26.92,53.81 26.08,54.23 25.11,54.97 "
     id="polygon120"
     style="fill:#00524f;stroke:none"
     transform="matrix(1.0386236,0,0,1.0386236,-2.0772472,-2.0772472)" />
  <polygon
     points="34.62,53.35 34.71,54.69 35.17,55.99 36.06,57.2 35.31,54.83 35.59,53.91 36.38,54.04 36.8,55.02 37.26,56.09 38.98,58.45 39.49,59.1 40.14,58.82 39.91,55.3 39.49,53.72 34.62,53.35 "
     id="polygon122"
     style="fill:#00524f;stroke:none"
     transform="matrix(1.0386236,0,0,1.0386236,-2.0772472,-2.0772472)" />
  <polygon
     points="40.65,53.91 41.3,55.11 41.53,56.09 41.39,57.43 40.65,59.15 40.51,59.75 41.34,59.01 42.41,58.17 43.29,56.78 43.94,55.02 43.9,53.53 40.65,53.91 "
     id="polygon124"
     style="fill:#00524f;stroke:none"
     transform="matrix(1.0386236,0,0,1.0386236,-2.0772472,-2.0772472)" />
  <polygon
     points="21.12,39.48 20.93,38.37 21.53,36.42 22.14,35.91 22.23,39.06 21.72,39.8 21.12,39.48 "
     id="polygon126"
     style="fill:#006382;stroke:none"
     transform="matrix(1.0386236,0,0,1.0386236,-2.0772472,-2.0772472)" />
  <polygon
     points="14.76,3.67 14.81,4.37 15.18,4.88 15.73,5.29 15.83,5.76 16.48,6.22 17.13,6.64 16.99,6.92 17.36,7.43 18.1,7.89 18.1,8.35 18.52,9.1 19.07,9.42 18.93,10.12 19.54,10.91 19.96,11.79 19.96,12.44 20.19,13.78 20.28,15.13 20.84,15.87 21.16,13.36 20.98,11.93 20.56,11.74 20.28,10.16 19.54,9.38 19.31,8.31 18.66,7.71 18.24,6.87 17.59,6.5 16.66,4.88 15.92,3.72 15.5,3.48 15.46,2.83 15.69,2 15.27,2.42 15.18,2.83 15.22,3.48 14.99,3.48 14.57,3.21 14.11,3.21 13.55,3.53 14.25,3.53 14.76,3.67 "
     id="polygon128"
     style="fill:#000000;stroke:none"
     transform="matrix(1.0386236,0,0,1.0386236,-2.0772472,-2.0772472)" />
  <polygon
     points="20.84,15.64 21.21,15.5 21.63,14.9 22.14,13.97 22.46,12.76 22.51,11.74 23.02,12.62 23.06,14.15 22.79,15.31 21.86,16.66 22.55,16.43 23.25,15.96 22.65,16.75 22.04,17.12 21.35,17.59 20.93,18.14 19.72,19.81 18.66,22.27 17.87,24.78 17.22,27.84 16.89,30.94 16.94,34.01 17.13,36.23 17.59,36.79 17.54,37.25 18.01,37.76 18.93,37.81 18.42,38.78 18.01,39.11 17.08,40.08 16.2,40.27 16.06,39.9 16.75,39.43 16.15,38 15.46,35.21 15.13,32.15 15.04,29.14 15.32,26.4 15.92,24.03 16.75,21.48 17.87,19.21 18.84,17.68 18.7,16.89 19.82,17.77 19.72,18.33 19.12,18.37 19.17,19.07 18.47,18.75 18.89,19.3 18.84,19.9 18.1,19.72 17.96,20.09 18.38,21.25 17.5,20.69 18.1,21.48 17.87,22.22 16.94,21.9 17.77,22.92 17.4,23.62 16.48,23.06 17.17,23.94 16.99,24.59 16.29,24.22 16.71,24.73 16.75,25.7 16.06,25.19 16.48,25.84 16.48,26.96 15.69,26.72 16.29,27.47 16.29,28.21 15.5,28.25 16.29,28.63 16.24,29.27 15.64,29.37 16.29,30.06 15.97,30.43 15.5,30.57 16.15,31.32 15.92,31.83 15.32,32.1 15.97,32.57 15.73,33.22 15.64,33.82 16.06,35.58 16.48,37.02 16.89,38.23 17.22,37.81 16.66,35.77 16.52,33.73 16.38,31.04 16.62,27.88 17.31,24.78 18.15,22.27 19.21,19.95 19.45,18.93 19.82,18.98 19.82,18.42 20.37,18.33 20.37,17.63 19.63,16.98 19.31,15.5 19.03,13.69 18.61,15.17 17.82,15.54 17.13,15.59 16.52,15.31 16.8,16.61 16.71,17.63 16.48,18.19 16.01,18.88 15.5,19.21 15.69,20.28 15.69,21.39 15.08,22.6 14.2,23.38 14.81,24.59 14.76,25.89 14.34,26.49 14.25,27.14 14.53,28.16 14.02,29.32 14.57,30.2 14.43,32.1 14.67,34.15 14.71,35.35 15.08,37.58 15.59,39.02 15.22,39.02 14.57,37.44 14.43,36.05 14.06,35.12 14.11,33.68 13.6,32.2 14.06,31.64 13.97,30.62 13.65,30.02 13.04,29.23 13.74,28.81 13.97,27.98 13.55,27.09 13.09,26.21 14.2,26.07 14.3,25.29 13.83,24.08 13.32,23.11 14.2,22.73 14.62,21.99 14.9,21.02 14.81,20 14.34,18.75 14.94,18.7 15.69,18.33 16.15,17.49 15.92,16.19 15.27,14.48 15.32,14.11 15.92,14.15 16.85,14.66 17.59,14.94 18.15,14.66 18.42,13.83 18.42,12.39 18.8,11.83 19.4,12.44 20.05,14.85 20.84,15.64 "
     id="polygon130"
     style="fill:#000000;stroke:none"
     transform="matrix(1.0386236,0,0,1.0386236,-2.0772472,-2.0772472)" />
  <polygon
     points="15.18,38.92 15.36,39.48 15.36,40.31 15.59,41.24 16.38,42.08 17.77,42.87 17.91,44.58 18.38,47.04 18.8,48.85 19.72,50.29 20.65,51.26 21.81,51.03 23.53,51.22 26.08,51.17 29.28,51.26 32.95,51.54 35.68,51.63 38,51.63 39.91,51.26 40.56,51.22 42.32,51.68 44.13,51.73 48.07,51.08 53.55,50.89 56.66,50.7 58.05,50.61 59.3,49.08 60.46,47.23 61.11,45.28 61.67,43.24 61.76,40.96 61.02,37.3 59.63,34.56 57.86,31.92 56.38,29.83 53.96,27.19 52.29,25.61 51.27,25.75 50.3,26.31 49.46,26.4 49.28,25.89 48.16,25.8 45.2,25.61 44.41,25.7 40.88,25.47 36.52,25.75 33.5,26.07 31.74,26.12 31.37,26.82 30.35,26.91 29.51,26.68 28.72,26.21 28.17,25.75 25.24,27.93 22.6,30.62 21.3,32.61 20,34.84 19.21,36.74 18.7,38.18 18.15,40.41 17.96,41.98 18.61,42.59 18.61,40.73 19.4,37.67 20.42,35.4 21.39,33.4 22.74,31.5 24.27,29.46 25.66,28.3 27.66,26.63 29.1,27.14 30.86,27.47 32.95,27.14 34.66,26.68 36.29,26.45 37.77,26.17 39.07,26.17 40.46,26.07 42.88,26.12 45.29,26.35 47.56,26.54 49.51,26.68 50.9,26.45 51.83,25.98 52.53,26.35 52.48,26.91 54.61,28.9 56.7,31.04 58.19,33.26 59.35,35.26 60.46,37.35 61.11,40.22 61.06,42.77 60.83,44.49 60.23,46.67 59.16,48.39 58.23,49.82 57.58,50.19 56.61,50.38 54.99,50.52 51.69,50.43 48.77,50.47 45.06,51.17 43.11,51.22 41.34,51.22 40.51,50.66 39.4,50.84 37.68,51.22 35.78,51.17 33.74,51.17 31.88,50.75 28.63,50.24 27.24,50.8 25.43,50.84 23.48,50.84 22.04,50.8 21.25,50.66 20.74,50.89 19.86,49.92 19.31,48.43 18.61,45.05 18.56,43.14 17.64,41.98 18.05,39.43 18.01,38.97 17.54,39.34 17.45,40.27 16.89,41.29 16.29,40.73 16.29,39.94 16.89,39.39 16.38,39.34 15.87,39.34 15.5,38.83 15.18,38.92 "
     id="polygon132"
     style="fill:#000000;stroke:none"
     transform="matrix(1.0386236,0,0,1.0386236,-2.0772472,-2.0772472)" />
  <polygon
     points="65.56,4.13 65.98,4.41 66.12,4.83 66.12,5.34 65.66,5.53 64.82,6.31 63.62,8.03 63.01,8.31 62.59,8.82 62.46,9.98 62.08,10.12 61.67,11.14 61.67,11.97 61.11,12.16 61.02,13.27 61.02,14.15 60.69,14.2 60.74,15.64 61.11,16.75 61.71,16.05 61.94,14.38 61.76,13.83 62.18,12.72 62.04,12.02 62.69,11.23 63.06,10.3 62.97,9.98 63.99,8.77 63.99,8.4 65.19,7.29 66.45,6.55 66.72,6.17 66.72,5.8 67.09,5.71 67.47,5.94 67.74,6.45 67.61,5.71 67.05,5.39 66.54,5.34 66.45,4.69 66.17,4.23 65.56,4.13 "
     id="polygon134"
     style="fill:#000000;stroke:none"
     transform="matrix(1.0386236,0,0,1.0386236,-2.0772472,-2.0772472)" />
  <polygon
     points="57.4,16.01 59.53,17.08 58.47,15.5 57.82,13.5 57.68,12.3 59.76,15.5 60.83,16.75 61.71,15.92 62.04,14.57 62.27,13.69 63.06,12.85 63.89,12.39 63.89,13.32 63.71,14.43 64.13,15.22 65.05,15.13 66.4,15.08 66.12,15.87 65.38,17.12 65.1,18.05 65.1,18.93 65.52,19.67 65.94,20.32 67.19,20.6 67.09,21.06 66.31,21.81 66.03,22.41 65.84,23.52 65.84,24.5 66.4,25.05 67.33,25.24 66.77,25.89 66.17,26.68 65.94,27.98 66.17,28.81 66.49,29.09 67.14,29.09 66.35,30.3 65.94,31.18 65.84,31.83 66.35,32.06 65.75,32.94 65.38,34.56 64.73,36.19 63.99,37.67 63.94,38.74 63.66,39.71 63.01,40.78 62.08,41.38 61.62,41.29 60.88,37.9 62.18,39.11 62.97,39.53 63.38,38.88 62.46,38.32 62.97,38.18 63.48,37.86 63.66,37.44 64.45,35.91 64.91,34.19 65.24,32.1 65.56,30.06 66.17,29.6 65.52,29.18 65.56,26.54 66.45,25.56 65.61,25.42 65.24,23.75 65.33,21.81 66.4,21.06 65.1,20.74 64.45,19.77 64.22,18.42 64.64,16.89 65.66,15.82 64.91,15.64 63.57,16.33 63.01,15.82 62.97,14.01 62.55,14.43 62.22,15.87 61.57,16.66 60.88,17.35 60.97,18.23 61.34,18.56 61.57,17.59 62.08,17.54 61.62,18.88 61.81,19.58 62.59,18.7 62.13,20.23 62.92,19.67 62.32,21.06 62.41,21.39 63.1,20.88 62.69,22.13 63.43,22.08 62.78,23.11 63.71,23.34 62.97,23.99 63.71,24.45 63.2,25.1 63.99,25.61 63.38,26.03 63.99,26.49 63.38,27.05 64.13,27.42 63.52,28.07 64.13,28.53 63.43,28.95 63.99,29.6 63.57,30.06 63.99,30.94 63.48,31.36 63.8,32.29 63.15,32.71 63.57,33.64 63.06,34.24 63.1,35.17 62.55,35.86 62.73,36.7 63.52,35.91 64.31,32.89 64.78,29.18 64.73,25.42 64.13,22.18 62.78,18 62.08,16.52 62.59,16.47 63.38,18.19 64.26,21.3 64.73,23.48 65.01,26.35 65.05,29.41 64.87,31.5 64.5,33.59 63.8,36.05 62.83,37.3 61.94,38.04 61.3,37.35 60.88,37.25 60.14,36.19 61.71,36 62.69,32.75 62.78,28.67 62.78,26.45 62.41,24.36 61.67,21.71 60.88,19.77 60.14,18.47 59.44,17.59 57.4,16.01 "
     id="polygon136"
     style="fill:#000000;stroke:none"
     transform="matrix(1.0386236,0,0,1.0386236,-2.0772472,-2.0772472)" />
  <polygon
     points="31.74,26.17 31.46,25.84 30.63,24.45 30.35,23.01 30.35,21.06 30.67,19.86 31.42,18.93 32.44,18.19 32.9,17.54 33.55,17.08 34.01,17.54 35.45,19.07 36.89,20.37 38.7,21.2 39.63,21.44 40.14,21.02 39.95,20.18 39.35,19.53 39.44,19.02 39.86,18.65 39.67,19.16 39.81,19.63 40.14,19.77 40.65,19.58 40.79,19.02 40.42,18.61 40.83,18 40.42,17.08 40.51,15.27 40.42,13.5 41.11,12.99 40.65,13.87 41.72,13.55 41.11,14.52 42.27,14.01 41.39,15.27 42.64,14.71 41.76,16.61 42.97,15.68 41.81,17.77 43.29,16.75 42.78,18 43.9,17.86 43.99,16.84 44.64,16.61 44.59,15.68 45.75,15.68 45.57,14.99 44.13,13.55 46.17,14.9 47.19,16.29 48.07,17.54 49.23,18.56 49.97,20.14 50.21,21.62 50.16,23.2 49.28,25.47 49.28,25.01 49.56,24.08 49.79,23.06 49.37,21.81 48.72,21.02 47.89,20.28 47.01,20.79 46.17,21.71 45.71,22.87 45.61,22.27 46.08,21.34 46.77,20.46 47.56,19.95 48.58,20 48.12,19.53 48.72,19.3 48.07,18.19 47.42,18.28 46.54,19.12 46.12,20.42 45.1,21.34 46.03,19.49 45.1,20.23 46.03,18.61 46.73,17.82 46.54,17.21 45.33,18.42 44.5,19.39 43.11,20.93 41.95,21.39 40.74,21.85 40.74,22.27 38.42,21.62 37.35,21.2 37.54,21.76 36.24,20.6 35.17,19.67 33.87,18.23 33.41,17.82 33.64,18.56 32.67,18.79 31.93,19.21 31.37,19.95 31.04,20.93 31.04,21.48 31.51,21.3 32.53,20.6 33.23,20.04 33.23,20.69 34.11,20.74 34.66,21.34 35.17,22.18 35.31,21.16 35.92,22.41 35.59,23.85 35.03,23.94 34.34,22.08 33.74,21.3 33.13,20.93 32.48,21.02 31.69,21.67 31.09,22.41 30.95,23.48 31.09,24.59 31.69,25.52 31.74,26.17 "
     id="polygon138"
     style="fill:#000000;stroke:none"
     transform="matrix(1.0386236,0,0,1.0386236,-2.0772472,-2.0772472)" />
  <polygon
     points="31.46,25.38 32.58,25.56 33.78,25.05 34.52,24.27 35.03,23.66 35.55,23.66 36.29,23.38 36.75,21.9 37.49,22.08 37.22,23.34 38.1,23.01 38.84,22.13 38.75,23.11 39.44,22.64 39.26,23.34 40.37,22.41 40.09,23.43 41.3,22.41 41.11,23.43 42.18,22.5 44.55,20.6 43.39,22.08 44.27,21.81 43.11,23.06 43.9,22.87 43.62,23.57 44.17,23.85 42.6,23.8 40.65,23.8 38.14,23.75 36.38,24.08 38,24.13 40.37,24.08 41.9,24.17 44.04,24.27 44.64,24.27 44.78,23.06 44.31,22.5 45.1,21.02 44.96,22.18 45.24,22.6 45.75,22.27 45.57,23.24 45.66,24.08 46.36,24.5 47.19,24.91 47.79,25.1 48.4,25.1 49.32,25.1 49.32,25.33 47.56,25.33 46.08,24.87 44.22,24.54 41.9,24.4 40.23,24.4 37.4,24.54 35.08,25.19 33.32,25.8 32.02,26.26 31.65,26.03 31.46,25.38 "
     id="polygon140"
     style="fill:#000000;stroke:none"
     transform="matrix(1.0386236,0,0,1.0386236,-2.0772472,-2.0772472)" />
  <polygon
     points="31.32,23.85 31.46,22.87 31.69,22.13 32.3,21.67 32.71,21.39 33.32,21.48 33.87,21.99 34.25,22.87 34.52,23.62 34.06,23.85 33.27,22.97 32.58,22.78 32.11,23.01 32.2,23.71 31.79,23.99 32.07,24.54 31.55,24.54 31.32,23.85 "
     id="polygon142"
     style="fill:#000000;stroke:none"
     transform="matrix(1.0386236,0,0,1.0386236,-2.0772472,-2.0772472)" />
  <polygon
     points="46.08,22.87 46.54,21.81 47.19,20.97 47.98,20.83 47.75,21.3 48.4,21.2 48.81,21.76 49.14,22.41 49.42,23.34 49,24.36 48.35,24.82 47.84,24.54 48.54,24.27 47.89,23.94 48.72,23.62 48.58,23.01 48.03,22.36 47.14,22.27 46.68,22.5 46.26,22.87 46.08,22.87 "
     id="polygon144"
     style="fill:#000000;stroke:none"
     transform="matrix(1.0386236,0,0,1.0386236,-2.0772472,-2.0772472)" />
  <polygon
     points="34.2,17.26 34.39,16.61 35.08,16.01 35.73,15.36 36.43,14.52 37.03,13.87 37.86,13.69 39.16,13.36 38.1,13.87 37.17,14.34 35.92,15.64 37.59,14.66 36.8,15.54 38.14,14.94 37.45,15.82 38.7,15.27 38.1,16.38 39.4,16.01 39.63,16.75 38.19,17.49 38.1,16.98 38.61,16.47 36.8,17.31 37.31,16.38 36.43,16.75 36.57,16.33 35.5,16.98 34.99,17.63 35.31,16.7 35.68,16.15 34.2,17.26 "
     id="polygon146"
     style="fill:#000000;stroke:none"
     transform="matrix(1.0386236,0,0,1.0386236,-2.0772472,-2.0772472)" />
  <polygon
     points="32.99,17.45 32.39,16.84 31.97,15.87 32.02,14.34 32.67,12.62 33.55,11.23 34.57,9.93 35.22,9.65 36.24,9.89 37.22,9.51 37.08,10.3 36.29,11.69 36.15,12.76 36.98,11.56 38.14,10.49 39.02,10.21 40.28,10.35 40.97,10.63 41.81,10.3 42.64,10.3 43.39,10.63 44.36,11.46 45.01,12.3 43.8,10.16 43.94,9.79 44.96,9.93 45.71,9.89 46.96,10.44 47.98,11.69 48.58,13.23 48.81,14.94 48.54,16.66 48.07,17.35 48.49,15.92 48.4,13.78 47.65,11.93 46.68,10.67 46.12,10.21 45.61,10.16 44.87,10.49 45.24,11.46 45.61,12.62 45.8,14.29 44.59,13.32 44.64,12.25 43.85,11.32 42.78,10.67 41.95,10.58 40.88,10.95 39.91,10.67 39.35,10.67 38.7,10.81 38.05,11.14 37.35,11.79 36.8,12.76 36.19,13.55 36.01,14.48 34.62,15.64 35.55,14.34 35.08,13.6 35.68,12.81 35.96,11.28 36.57,10.49 36.61,10.07 35.96,10.12 35.17,10.02 34.71,10.21 33.97,11.05 32.76,13.09 32.25,14.8 32.34,16.24 33.5,17.26 32.99,17.45 "
     id="polygon148"
     style="fill:#000000;stroke:none"
     transform="matrix(1.0386236,0,0,1.0386236,-2.0772472,-2.0772472)" />
  <polygon
     points="33.69,12.2 32.9,13.74 32.67,14.94 32.85,16.15 33.74,16.84 34.43,15.78 35.22,15.13 33.87,15.5 33.32,15.87 33.23,14.94 34.06,14.62 33.13,14.34 34.06,13.78 33.6,13.41 33.69,12.2 "
     id="polygon150"
     style="fill:#000000;stroke:none"
     transform="matrix(1.0386236,0,0,1.0386236,-2.0772472,-2.0772472)" />
  <polygon
     points="36.57,13.92 37.12,13.55 38.42,12.99 39.81,12.67 40.6,12.62 41.9,12.85 43.71,13.32 44.5,13.74 44.64,13.13 44.17,12.02 43.06,11.23 41.11,11.23 42.64,11.79 43.71,12.53 42.27,12.48 41.02,12.2 40.32,12.02 40.37,11.42 38.89,11.37 38.1,11.74 39.77,11.74 38.93,12.16 37.45,12.3 38,12.58 37.26,12.95 36.7,13.32 36.57,13.92 "
     id="polygon152"
     style="fill:#000000;stroke:none"
     transform="matrix(1.0386236,0,0,1.0386236,-2.0772472,-2.0772472)" />
  <polygon
     points="35.68,10.49 35.87,11.18 34.94,11.46 35.73,11.6 34.99,11.97 33.97,11.97 34.52,11.28 35.68,10.49 "
     id="polygon154"
     style="fill:#000000;stroke:none"
     transform="matrix(1.0386236,0,0,1.0386236,-2.0772472,-2.0772472)" />
  <polygon
     points="33.92,13.04 34.43,12.39 35.41,12.16 35.27,12.76 34.71,12.81 33.92,13.04 "
     id="polygon156"
     style="fill:#000000;stroke:none"
     transform="matrix(1.0386236,0,0,1.0386236,-2.0772472,-2.0772472)" />
  <polygon
     points="44.55,10.72 45.8,10.63 46.26,10.86 45.66,11.42 46.45,12.11 47.24,12.34 45.47,12.62 44.55,10.72 "
     id="polygon158"
     style="fill:#000000;stroke:none"
     transform="matrix(1.0386236,0,0,1.0386236,-2.0772472,-2.0772472)" />
  <polygon
     points="46.26,11.56 46.59,11.23 47.05,11.83 46.26,11.56 "
     id="polygon160"
     style="fill:#000000;stroke:none"
     transform="matrix(1.0386236,0,0,1.0386236,-2.0772472,-2.0772472)" />
  <polygon
     points="45.33,12.85 47.05,12.99 46.87,13.74 45.66,13.36 45.33,12.85 "
     id="polygon162"
     style="fill:#000000;stroke:none"
     transform="matrix(1.0386236,0,0,1.0386236,-2.0772472,-2.0772472)" />
  <polygon
     points="47.61,13.5 47.93,14.66 47.93,15.78 47.7,16.84 47.1,16.47 47.52,15.68 46.77,15.17 47.47,15.03 46.63,14.29 47.56,14.38 47.61,13.5 "
     id="polygon164"
     style="fill:#000000;stroke:none"
     transform="matrix(1.0386236,0,0,1.0386236,-2.0772472,-2.0772472)" />
  <polygon
     points="29.93,27.56 30.95,27.74 31.97,27.6 33.69,27.14 36.47,26.77 38.7,26.58 41.16,26.68 43.34,26.77 45.71,26.91 47.84,27.09 49.84,27.09 50.9,26.77 50.48,27.33 48.07,27.6 45.71,27.37 43.29,27.14 41.67,27.14 39.63,27 37.26,27.14 35.13,27.47 32.99,27.84 31.6,28.07 30.44,28.07 29.93,27.56 "
     id="polygon166"
     style="fill:#000000;stroke:none"
     transform="matrix(1.0386236,0,0,1.0386236,-2.0772472,-2.0772472)" />
  <polygon
     points="56.61,39.06 56.24,37.72 56.79,36.23 57.26,35.58 57.35,37.3 57.44,38.51 57.21,39.15 56.61,39.06 "
     id="polygon168"
     style="fill:#000000;stroke:none"
     transform="matrix(1.0386236,0,0,1.0386236,-2.0772472,-2.0772472)" />
  <polygon
     points="49.88,28.39 49,29.23 48.4,28.44 48.12,29.32 47.42,28.63 46.96,29.32 46.59,28.39 45.89,29.18 44.82,28.21 44.13,29.18 43.39,28.39 42.69,29.04 41.85,28.21 41.02,28.81 40.42,27.98 39.81,28.86 39.26,27.88 39.3,28.76 38.75,28.12 38.47,28.9 37.68,28.12 37.31,28.81 36.33,28.21 34.99,29.04 32.99,28.76 31.88,29.55 30.39,30.25 28.82,31.08 27.94,32.75 26.59,33.4 27.05,34.1 26.17,34.1 26.87,34.84 25.29,35.03 24.78,36.51 24.6,38.04 23.81,39.34 24.32,40.04 23.48,40.41 23.25,41.47 22.69,42.54 23.11,42.77 22.28,44.07 22.74,44.35 21.9,45.37 22.09,46.67 22.18,48.25 23.02,49.5 24.22,50.57 24.69,49.64 23.85,47.74 23.9,45.46 24.69,42.45 25.71,41.15 26.31,41.34 26.17,39.76 27.19,40.5 26.78,38.64 27.61,39.85 27.84,38.09 29.14,39.67 29.33,37.53 30.26,38.92 30.26,37.21 31.46,38.6 31.79,36.7 32.76,38.18 33.18,36.23 34.25,37.95 34.62,35.82 35.31,37.81 35.68,36.14 36.38,37.81 36.89,35.91 37.35,37.53 38.33,35.63 38.79,37.49 39.72,35.68 40,37.39 40.93,35.54 41.39,37.39 42.18,35.72 42.6,37.72 43.43,35.58 43.71,37.62 45.1,35.82 44.87,37.76 46.63,36.33 45.71,38.64 47.28,37.58 45.85,39.8 47.61,39.15 46.08,40.82 48.35,41.1 46.22,42.4 48.3,42.4 45.89,43.47 47.93,43.84 45.47,44.72 47.47,45.37 45.24,45.65 47.01,46.62 44.55,47.18 46.26,47.5 44.64,48.34 46.36,48.62 44.92,49.73 46.36,49.55 45.2,50.8 46.82,50.33 46.17,51.22 49.37,50.61 54.24,50.33 55.82,49.55 55.96,50.15 57.21,49.22 56.66,49.08 57.95,48.01 58.42,46.85 57.82,45.51 58.93,45.97 58,44.35 59.11,44.54 57.72,43.28 58.42,42.87 57.44,42.17 58,41.43 57.12,40.59 56.19,39.85 55.36,37.86 55.26,35.12 54.24,33.82 53.41,33.82 53.78,32.75 52.8,32.99 52.8,31.22 51.74,31.18 50.95,30.2 51.23,29.27 49.88,28.39 "
     id="polygon170"
     style="fill:#000000;stroke:none"
     transform="matrix(1.0386236,0,0,1.0386236,-2.0772472,-2.0772472)" />
  <polygon
     points="19.86,52.37 20.37,51.86 21.25,51.4 22.65,51.54 24.5,51.49 26.96,51.54 30.95,51.54 36.98,52.05 33.32,52.28 35.45,52.89 38.33,53.07 41.21,53.26 43.8,52.93 42.27,52.51 40.65,51.91 38.1,52 40.32,51.54 42.13,52.05 43.9,52.28 46.91,52.14 50.35,51.86 53.45,51.45 57.72,50.84 56.75,51.4 58.51,51.03 59.76,51.86 60.65,54.65 59.67,52.79 58.84,51.77 57.63,51.77 56.7,52.42 55.87,53.02 54.24,52.47 53.41,52.98 52.34,52.51 51.41,53.07 50.3,52.61 49.84,53.49 49.23,53.02 48.77,54.55 48.63,53.35 47.7,55.11 48.12,53.4 46.59,55.48 47.28,53.44 45.98,53.81 43.71,53.86 40.83,54.14 38.24,54.14 35.08,53.67 33.09,53.3 32.85,54.93 32.34,53.35 31.74,53.49 31.37,54.97 30.91,53.12 29.98,53.12 28.72,54.69 28.82,53.07 27.38,52.89 25.62,54.42 25.57,53.12 24.08,52.65 22.23,51.91 21.16,52 20.23,52.84 19.86,52.37 "
     id="polygon172"
     style="fill:#000000;stroke:none"
     transform="matrix(1.0386236,0,0,1.0386236,-2.0772472,-2.0772472)" />
  <polygon
     points="22.6,51.54 21.25,52.75 20.14,54.28 19.96,56.36 20.37,59.19 21.25,62.67 21.25,66.48 20.98,69.54 21.07,73.02 21.3,76.82 21.86,79.65 22.46,82.99 23.39,85.68 25.11,89.3 23.48,83.96 22.79,80.44 22.09,76.73 21.58,71.21 21.58,67.08 22.46,72.74 22.69,77.93 23.76,83.27 24.87,87.26 27.01,91.57 26.08,88.09 24.6,83.27 23.81,77.33 23.11,70.51 22.69,64.02 22.28,60.96 21.77,58.27 21.67,56.09 22.32,54.42 23.57,53.35 25.8,52.75 22.6,51.54 "
     id="polygon174"
     style="fill:#000000;stroke:none"
     transform="matrix(1.0386236,0,0,1.0386236,-2.0772472,-2.0772472)" />
  <polygon
     points="20.23,52.14 19.77,52.51 19.4,53.67 19.07,54.83 18.93,55.95 18.89,57.57 18.47,59.94 18.05,62.9 17.87,65.41 18.01,68.93 18.33,71.95 18.56,74.78 19.07,78.58 19.72,81.51 20.74,84.52 21.86,87.16 23.44,90.04 24.97,92.08 26.96,94.21 28.54,95.65 31,97.32 32.9,98.3 35.36,99.04 38,99.69 41.11,99.87 39.3,99.6 36.52,99.18 34.01,98.44 31.23,97.09 28.45,94.96 26.17,92.54 24.27,90.04 22.23,86.33 20.93,82.8 20.14,79 19.82,75.34 20.05,72.41 20.33,75.8 20.7,78.44 21.16,81.23 22.41,84.89 21.39,80.16 20.98,76.91 20.56,72.74 20.37,70.14 19.68,71.39 19.21,68.24 18.66,71.39 18.42,70.37 18.33,67.31 18.42,63.79 18.66,61.7 19.21,59.1 19.54,61 20,65.46 20.19,62.72 19.96,60.21 19.68,57.89 19.54,56.32 19.72,54.28 20.05,53.07 20.23,52.7 20.23,52.14 "
     id="polygon176"
     style="fill:#000000;stroke:none"
     transform="matrix(1.0386236,0,0,1.0386236,-2.0772472,-2.0772472)" />
  <polygon
     points="20.09,52.1 19.26,52.1 18.38,52.47 17.5,53.12 15.5,54.32 14.76,55.02 13.18,55.16 11.74,55.71 12.67,55.71 13.6,55.71 13.83,56.13 13.41,56.87 12.67,57.52 10.58,57.66 9.61,58.08 10.54,58.17 11.42,58.45 11.6,58.87 11.46,59.38 8.45,61.1 9.79,60.96 10.58,61.23 10.86,61.93 10.35,62.77 9.33,63.69 11.23,63.32 10.54,63.83 10.03,64.34 9.89,64.67 8.87,64.95 8.5,65.41 7.71,65.5 7.38,65.87 7.47,66.15 6.45,66.34 6.08,66.85 4.09,67.54 3.44,68.1 2.88,68.05 2.46,67.82 2,67.36 2.37,68.01 2.6,68.19 3.07,68.33 3.44,68.38 3.11,68.8 2.88,69.44 2.93,70 3.25,70.56 3.11,69.77 3.3,69.12 3.95,68.56 4.46,68.52 5.06,68.19 6.41,67.26 6.96,67.22 7.57,66.57 8.08,66.52 8.96,65.78 9.52,65.83 10.31,64.95 10.91,64.95 12.25,63.51 12.58,63.83 12.72,64.71 12.39,66.01 12.11,67.5 12.72,66.85 13.51,64.2 13.55,63.04 13.97,61.7 12.53,62.12 11.37,62.53 11.6,61.61 11.19,60.96 10.54,60.63 11.14,60.21 12.02,59.52 12.02,58.78 11.51,58.17 12.44,58.03 13.32,57.62 13.97,56.69 14.16,55.71 14.85,55.62 15.41,55.25 15.97,54.55 16.94,53.95 17.77,53.35 18.38,53.26 18.42,53.86 18.52,54.42 18.8,53.86 18.8,52.79 19.12,52.7 19.82,52.93 20.09,52.1 "
     id="polygon178"
     style="fill:#000000;stroke:none"
     transform="matrix(1.0386236,0,0,1.0386236,-2.0772472,-2.0772472)" />
  <polygon
     points="19.17,55.11 18.61,54.88 18.29,54.74 17.77,54.97 16.8,55.9 16.15,56.87 15.32,58.4 14.57,59.98 13.6,62.35 12.76,62.12 12.81,61.1 13.51,60.03 12.25,60.21 12.35,59.8 13.55,58.87 14.48,57.94 14.3,57.2 14.62,56.92 15.5,56.5 16.01,55.58 16.48,54.97 17.26,54.37 18.38,53.81 18.61,54.18 19.03,54.42 19.4,54.42 19.17,55.11 "
     id="polygon180"
     style="fill:#000000;stroke:none"
     transform="matrix(1.0386236,0,0,1.0386236,-2.0772472,-2.0772472)" />
  <polygon
     points="17.68,68.1 17.87,70.14 18.15,73.9 18.66,74.64 17.36,75.1 17.13,75.89 17.08,78.07 17.31,82.76 18.98,88 20.37,90.64 21.67,92.68 25.06,94.68 22.55,93.52 23.71,94.86 25.2,97.14 25.62,98.25 24.04,96.53 22.41,94.91 24.04,99.04 23.71,99.09 21.12,94.91 20.65,94.45 19.68,95.65 19.54,93.66 20.37,92.59 21.07,92.92 19.17,89.67 17.96,87.21 17.03,83.45 16.75,80.53 16.57,78.26 16.99,74.59 16.48,73.94 15.83,73.99 16.01,73.34 16.8,73.34 17.5,73.67 17.22,72.92 17.64,71.95 17.45,71.49 16.71,72.6 16.85,71.21 16.71,70.56 16.15,71.25 15.59,72.41 15.46,71.35 16.38,69.72 17.68,68.1 "
     id="polygon182"
     style="fill:#000000;stroke:none"
     transform="matrix(1.0386236,0,0,1.0386236,-2.0772472,-2.0772472)" />
  <polygon
     points="15.59,71.21 15.22,71.9 15.13,72.78 15.27,73.53 15.36,74.22 14.94,76.31 14.62,77.79 14.02,78.81 14.57,78.4 14.53,79.23 14.39,81.09 13.6,83.64 14.53,82.53 14.48,85.17 14.06,86.14 14.3,86.84 13.51,88.74 14.3,87.63 14.16,89.34 14.9,87.58 15.59,87.4 15.87,88 15.92,89.3 15.69,91.06 14.67,92.27 15.36,91.76 14.11,93.75 15.83,92.03 15.59,93.24 16.34,92.22 16.8,91.99 16.94,92.73 16.71,93.84 15.87,96.12 17.13,94.21 17.68,93.52 17.5,94.91 18.19,94.03 18.7,94.86 18.56,95.84 17.59,97 18.19,96.72 17.36,98.3 18.7,97.09 19.54,96.26 19.63,94.54 19.31,92.92 18.89,93.43 19.12,94.68 18.33,93.75 17.59,93.38 17.5,92.17 17.13,91.43 16.15,91.71 16.15,91.06 16.48,89.02 16.06,87.35 15.36,87.12 15.41,86.24 14.76,86 15.04,84.8 14.85,81.18 15.04,78.54 15.5,75.52 15.97,73.76 15.83,72.92 15.73,71.86 15.59,71.21 "
     id="polygon184"
     style="fill:#000000;stroke:none"
     transform="matrix(1.0386236,0,0,1.0386236,-2.0772472,-2.0772472)" />
  <polygon
     points="16.43,74.59 16.62,75.47 16.24,77.42 16.24,79.65 16.52,82.43 16.85,84.61 17.64,88 18.84,91.11 19.4,93.8 18.84,93.33 18.19,93.66 17.87,93.29 18.05,92.03 17.59,91.34 17.13,91.8 16.71,91.29 16.85,90.23 16.94,88.6 16.52,87.21 15.92,86.89 15.22,87.21 15.04,86.14 15.83,85.45 16.2,84.2 15.97,82.11 15.73,79 15.59,77.79 16.01,76.54 16.01,75.47 16.43,74.59 "
     id="polygon186"
     style="fill:#000000;stroke:none"
     transform="matrix(1.0386236,0,0,1.0386236,-2.0772472,-2.0772472)" />
  <polygon
     points="19.68,94.86 19.68,96.44 19.63,97.23 18.29,98.3 17.22,98.95 18.15,98.9 17.82,99.41 15.69,99.87 16.62,100.15 15.36,100.89 14.3,101.31 14.9,101.54 12.86,102.7 10.91,103.58 10.21,103.77 9.33,103.68 8.91,103.21 9.24,103.82 9.66,104.09 10.35,104.19 10.82,104.19 10.35,104.74 10.17,105.44 10.44,106.41 10.82,106.92 10.68,105.81 10.86,104.93 11.42,104.37 12.11,104.37 12.86,103.82 14.94,102.05 15.41,102.19 16.15,101.59 16.99,100.57 17.13,101.27 17.64,100.66 18.19,99.83 18.52,99.5 19.12,99.73 19.58,98.85 19.96,97.93 19.96,97.23 20.37,97.93 20.79,96.95 21.07,95.51 20.84,94.31 19.68,94.86 "
     id="polygon188"
     style="fill:#000000;stroke:none"
     transform="matrix(1.0386236,0,0,1.0386236,-2.0772472,-2.0772472)" />
  <polygon
     points="47.84,53.26 46.03,56.46 44.59,58.59 43.48,60.59 43.01,62.58 42.69,64.39 42.5,68.61 42.6,74.73 42.92,84.29 43.39,90.78 43.71,94.59 43.8,88.56 43.8,80.35 44.08,74.41 43.9,68.01 44.17,64.9 44.31,62.67 45.2,60.68 44.82,62.67 44.69,64.71 44.69,69.63 45.01,78.26 45.2,86.47 45.38,92.17 46.03,87.3 46.22,79.23 46.31,69.82 46.03,62.58 46.59,58.59 47.1,55.95 48.03,53.63 47.52,56.09 47.19,58.36 47.01,62.3 47.01,66.99 47.19,74.83 47.24,79.93 47.24,84.98 47.52,90.27 48.4,84.57 48.72,74.45 48.63,67.5 48.72,61.19 48.54,57.15 48.81,53.53 49.05,57.25 49.42,63.6 49.74,70.6 49.74,78.86 49.84,85.17 49.84,89.07 50.86,84.24 51.46,78.72 51.55,70.93 51.23,64.11 50.62,57.76 49.56,52.51 50.44,54.55 51.74,59.19 52.62,64.62 52.94,70.51 53.04,76.96 52.94,81.46 53.87,75.75 53.78,68.01 53.36,62.07 52.16,57.76 50.62,52.65 51.74,52.33 52.85,54.46 54.15,58.17 54.75,63.18 55.26,67.59 55.54,62.86 55.26,59.19 54.43,55.58 53.36,52.75 53.73,52.33 55.87,55.07 56.75,54.23 56.28,53.07 57.49,53.35 58.37,54.46 58.37,58.36 58.7,63.09 58.7,68.38 58.65,72.09 58.37,78.44 57.77,82.48 56.98,86.1 54.99,91.48 56.01,88.56 56.84,84.8 55.68,88 54.66,90.64 53.18,93.24 54.06,90.55 54.75,86.89 55.26,83.5 54.24,87.54 53.41,90.41 52.02,93.19 51.09,94.17 51.92,92.13 52.67,88.79 52.8,85.63 52.02,88.69 51.37,92.22 50.21,94.86 49.37,95.93 49.74,93.43 49.97,90.5 49.37,92.27 48.63,95.93 47.89,96.49 48.07,92.41 48.03,91.01 47.61,92.08 47.38,96.63 46.17,97.37 45.98,93.01 45.43,93.89 45.33,96.95 44.73,97.74 44.13,95.37 43.66,95.88 43.57,97.88 42.13,96.95 41.58,93.8 41.48,90.5 41.53,87.35 41.58,83.31 41.95,79 42.09,74.59 41.95,69.31 41.95,65.97 42.13,63.41 42.64,61.19 43.57,59.47 44.5,57.94 45.47,56.41 47.84,53.26 "
     id="polygon190"
     style="fill:#000000;stroke:none"
     transform="matrix(1.0386236,0,0,1.0386236,-2.0772472,-2.0772472)" />
  <polygon
     points="59.63,52.14 60.23,53.35 60.46,55.3 60.6,57.57 60.97,59.01 61.71,62.07 62.18,65.04 62.22,67.96 62.04,71.21 61.62,76.26 61.25,79.56 60.65,82.25 59.81,84.98 59.02,86.93 58.6,88.05 57.77,89.72 56.66,91.43 55.22,93.06 53.59,94.77 51.18,96.49 48.77,97.93 46.45,98.95 44.5,99.6 41.21,99.92 41.72,99.6 43.94,99.46 46.03,98.9 49.05,97.65 51.37,96.02 53.73,94.17 55.22,92.54 57.63,88.97 58.79,86.28 59.95,82.53 61.06,75.57 61.02,70.19 60.41,66.62 60.37,64.99 60.78,66.52 61.76,69.21 61.9,65.36 61.57,62.86 60.51,59.38 60.27,61.93 60.04,59.52 60.09,56.74 60.04,54.23 59.49,52.42 59.63,52.14 "
     id="polygon192"
     style="fill:#000000;stroke:none"
     transform="matrix(1.0386236,0,0,1.0386236,-2.0772472,-2.0772472)" />
  <polygon
     points="59.53,64.48 59.81,68.52 59.76,72.55 59.3,77.98 58.84,81.37 57.91,85.45 56.89,88.18 57.86,84.71 58.6,79.37 59.02,73.48 59.25,69.54 59.53,64.48 "
     id="polygon194"
     style="fill:#000000;stroke:none"
     transform="matrix(1.0386236,0,0,1.0386236,-2.0772472,-2.0772472)" />
  <polygon
     points="59.21,51.22 60.14,51.17 61.39,51.63 62.5,52.7 62.87,53.44 64.31,54.65 65.42,55.71 66.21,56.36 66.86,56.46 68.12,56.36 66.63,56.83 67.74,57.25 66.45,57.29 66.68,57.76 67.47,59.01 69.14,59.7 71.04,59.38 69.79,59.94 72.06,60.72 69.51,60.26 68.95,60.54 69.09,61.19 69.32,61.84 70.25,62.07 69.83,62.44 71.5,62.67 70.39,62.86 71.83,63.23 70.02,63.09 69.37,62.49 68.77,61.61 68.3,60.59 67.65,60.17 68.53,60.07 68.12,59.75 67.14,59.1 66.68,58.45 65.84,57.34 65.7,56.74 65.19,55.99 64.03,54.83 63.34,54.18 62.5,53.91 62.08,54.23 62.08,54.88 61.67,54.83 61.34,53.91 61.62,53.35 62.13,53.16 61.94,52.7 61.48,52.98 60.97,53.44 61.02,52.33 60.46,51.82 59.21,51.82 59.21,51.22 "
     id="polygon196"
     style="fill:#000000;stroke:none"
     transform="matrix(1.0386236,0,0,1.0386236,-2.0772472,-2.0772472)" />
  <polygon
     points="60.09,53.86 60.55,54.14 60.92,54.46 61.02,53.95 61.62,54.65 61.57,55.02 60.97,55.3 60.27,55.3 60.09,53.86 "
     id="polygon198"
     style="fill:#000000;stroke:none"
     transform="matrix(1.0386236,0,0,1.0386236,-2.0772472,-2.0772472)" />
  <polygon
     points="61.94,54.88 62.78,55.9 63.52,57.11 64.64,59.15 65.38,61 66.03,62.86 66.4,63.6 66.54,64.95 67.09,66.57 67.84,67.59 68.07,67.31 67.51,65.73 67,64.44 66.82,63.55 67.61,63.51 67.05,63.04 66.35,62.21 65.84,60.07 64.4,57.38 63.52,56.04 61.9,54.46 61.94,54.88 "
     id="polygon200"
     style="fill:#000000;stroke:none"
     transform="matrix(1.0386236,0,0,1.0386236,-2.0772472,-2.0772472)" />
  <polygon
     points="61.99,53.77 62.55,54.42 64.03,55.9 64.78,57.25 65.84,57.34 64.96,56.69 64.22,55.58 63.34,54.69 61.99,53.77 "
     id="polygon202"
     style="fill:#000000;stroke:none"
     transform="matrix(1.0386236,0,0,1.0386236,-2.0772472,-2.0772472)" />
  <polygon
     points="65.1,57.71 65.56,59.05 66.17,59.75 67.14,60.17 68.25,60.35 67.51,59.89 66.58,59.24 65.94,58.59 65.52,57.71 65.1,57.71 "
     id="polygon204"
     style="fill:#000000;stroke:none"
     transform="matrix(1.0386236,0,0,1.0386236,-2.0772472,-2.0772472)" />
  <polygon
     points="66.58,59.8 66.54,61 66.91,61.93 67.51,62.63 68.21,63.28 69.79,63.23 68.07,62.39 67.42,61.56 66.96,60.4 66.58,59.8 "
     id="polygon206"
     style="fill:#000000;stroke:none"
     transform="matrix(1.0386236,0,0,1.0386236,-2.0772472,-2.0772472)" />
  <polygon
     points="67.56,63.46 68.72,63.55 69.65,64.25 70.85,64.67 71.27,65.22 73.13,65.59 72.43,66.01 74.75,66.38 73.92,66.66 75.86,67.31 77.02,67.82 77.58,68.24 77.95,67.87 78.14,67.5 78.28,66.75 78.42,67.31 78.28,67.96 77.86,68.66 78.14,69.68 77.91,70.7 77.81,69.35 77.49,68.93 76.61,68.98 73.73,67.22 73.45,67.17 73.59,67.82 72.76,66.99 72.06,66.34 72.06,67.03 71.73,66.24 70.85,65.78 70.67,65.92 70.9,66.94 70.25,65.78 69.55,64.9 69.18,64.81 69.23,65.83 68.72,64.62 67.56,63.46 "
     id="polygon208"
     style="fill:#000000;stroke:none"
     transform="matrix(1.0386236,0,0,1.0386236,-2.0772472,-2.0772472)" />
  <polygon
     points="62.46,68.29 62.22,74.41 63.48,74.55 63.48,73.9 62.83,73.43 63.01,72.23 63.89,73.8 64.68,73.25 65.33,73.8 65.75,72.88 65.19,72.74 64.73,72.09 63.94,72.18 63.52,71.67 63.34,70.33 63.2,69.63 63.94,69.17 62.46,68.29 "
     id="polygon210"
     style="fill:#000000;stroke:none"
     transform="matrix(1.0386236,0,0,1.0386236,-2.0772472,-2.0772472)" />
  <polygon
     points="63.57,68.98 64.59,69.77 65.56,71.44 65.75,72.09 65.61,72.97 65.29,73.11 65.33,72.18 64.96,71.07 64.08,70.05 63.1,69.44 63.57,68.98 "
     id="polygon212"
     style="fill:#000000;stroke:none"
     transform="matrix(1.0386236,0,0,1.0386236,-2.0772472,-2.0772472)" />
  <polygon
     points="63.89,73.57 63.34,73.99 63.34,74.5 63.57,75.24 63.66,79.79 63.43,81.04 62.97,82.8 62.22,84.75 61.25,87.44 59.86,89.81 58.51,91.8 58,92.82 56.42,94.96 55.54,97.09 55.59,97.42 56.1,97.14 58.65,93.57 58.23,96.35 58,99.87 58.65,98.9 59.72,93.61 60.46,93.06 59.58,92.59 59.35,91.94 61.48,87.95 63.06,84.2 63.89,81.78 64.17,79 64.17,74.73 63.89,73.57 "
     id="polygon214"
     style="fill:#000000;stroke:none"
     transform="matrix(1.0386236,0,0,1.0386236,-2.0772472,-2.0772472)" />
  <polygon
     points="60.74,92.22 61.11,93.29 61.85,93.98 61.57,92.82 61.71,91.34 62.27,90.04 63.2,89.48 63.2,88.37 63.52,87.07 64.13,86.24 64.68,86 64.54,84.57 64.68,81.04 64.68,75.34 64.26,73.34 64.82,73.25 65.1,74.73 65.29,76.45 65.33,77.42 65.15,77.47 65.47,78.21 65.24,78.72 65.01,78.68 65.29,79.19 65.24,79.88 65.01,79.7 65.15,80.53 65.05,81.88 64.82,83.78 65.24,85.54 65.7,86.89 64.82,86.7 64.31,86.65 63.85,87.4 63.66,88.69 64.59,90.64 65.33,91.39 64.4,90.74 65.05,91.99 63.62,90.18 62.92,89.9 62.32,90.5 62.13,91.71 62.13,92.73 62.59,94.17 62.41,94.77 63.75,95.93 62.22,94.91 61.2,94.08 60.04,93.06 60.32,92.68 60.74,92.22 "
     id="polygon216"
     style="fill:#000000;stroke:none"
     transform="matrix(1.0386236,0,0,1.0386236,-2.0772472,-2.0772472)" />
  <polygon
     points="65.38,73.76 65.75,75.24 65.98,77.05 66.72,78.49 65.98,77.84 66.03,78.95 66.82,79.97 66.12,79.42 65.89,80.21 66.91,81.97 65.98,81.27 65.8,81.6 66.58,83.08 65.7,82.2 65.52,83.41 65.56,84.61 67.19,85.22 66.03,85.17 67.51,86.33 66.17,85.54 67.33,87.02 65.94,85.91 65.24,85.68 65.61,85.45 65.29,84.33 65.24,83.22 65.33,81.18 65.66,79.14 65.61,76.87 65.33,74.27 65.38,73.76 "
     id="polygon218"
     style="fill:#000000;stroke:none"
     transform="matrix(1.0386236,0,0,1.0386236,-2.0772472,-2.0772472)" />
  <polygon
     points="64.54,86.98 64.45,88.05 64.73,88.83 66.31,89.81 65.05,89.34 66.31,90.64 64.91,89.85 64.17,89.67 64.36,89.16 64.17,87.86 64.54,86.98 "
     id="polygon220"
     style="fill:#000000;stroke:none"
     transform="matrix(1.0386236,0,0,1.0386236,-2.0772472,-2.0772472)" />
  <polygon
     points="65.24,86.75 66.35,88.05 65.94,87.21 67.09,88.05 65.66,86.65 65.24,86.75 "
     id="polygon222"
     style="fill:#000000;stroke:none"
     transform="matrix(1.0386236,0,0,1.0386236,-2.0772472,-2.0772472)" />
  <polygon
     points="63.38,90.41 62.87,91.29 62.69,92.41 62.87,93.38 63.29,94.31 62.46,93.24 62.46,91.8 62.59,90.97 62.97,90.41 63.38,89.99 63.38,90.41 "
     id="polygon224"
     style="fill:#000000;stroke:none"
     transform="matrix(1.0386236,0,0,1.0386236,-2.0772472,-2.0772472)" />
  <polygon
     points="59.63,93.29 60.23,95.14 60.46,95.93 61.06,96.35 61.39,97.65 61.71,98.3 61.9,99.55 61.99,98.2 62.22,98.53 62.69,99.78 63.1,100.43 63.29,101.13 63.34,100.34 63.57,100.52 64.26,101.59 64.96,102.84 64.78,101.91 65.42,102.75 66.4,103.72 67.14,104.84 67.88,105.25 68.02,105.86 67.79,106.69 68.16,106.27 68.25,105.53 68.02,104.93 69.28,104.93 69.79,104.33 69.09,104.74 68.35,104.61 67.98,103.91 65.38,101.54 66.96,101.78 65.1,101.03 64.17,100.15 65.84,100.48 63.89,99.55 62.69,98.11 64.4,98.48 62.87,97.65 61.81,96.35 61.81,95.84 63.15,96.35 61.67,95.42 60.18,93.19 59.63,93.29 "
     id="polygon226"
     style="fill:#000000;stroke:none"
     transform="matrix(1.0386236,0,0,1.0386236,-2.0772472,-2.0772472)" />
  <polygon
     points="41.85,54.69 41.95,55.44 41.9,56.55 41.53,57.66 41.99,57.06 41.76,57.99 41.39,58.87 42.27,58.17 42.74,57.52 43.29,56.55 43.71,55.53 43.71,54.65 41.85,54.69 "
     id="polygon228"
     style="fill:#000000;stroke:none"
     transform="matrix(1.0386236,0,0,1.0386236,-2.0772472,-2.0772472)" />
  <polygon
     points="21.9,37.95 22.23,38.92 22.09,40.04 21.39,40.41 21.3,39.53 21.53,38.46 21.63,37.58 21.9,37.95 "
     id="polygon230"
     style="fill:#000000;stroke:none"
     transform="matrix(1.0386236,0,0,1.0386236,-2.0772472,-2.0772472)" />
  <polygon
     points="21.16,19.67 20.84,20.65 21.07,21.71 21.95,22.64 22.74,23.11 23.99,23.06 25.2,22.73 25.71,22.27 26.64,21.99 27.38,21.39 28.35,21.02 28.82,20.32 30.72,20.18 30.77,19.9 29.51,19.95 28.68,20.18 28.08,20.88 27.29,21.16 26.5,21.71 25.38,22.22 24.55,22.69 23.25,22.78 22.14,22.41 21.39,21.48 21.21,20.69 21.72,19.77 22.41,19.3 22.97,19.49 23.62,18.93 23.25,18.79 22.79,19.21 22.37,18.98 21.67,19.49 21.16,19.67 "
     id="polygon232"
     style="fill:#000000;stroke:none"
     transform="matrix(1.0386236,0,0,1.0386236,-2.0772472,-2.0772472)" />
  <polygon
     points="22.09,19.67 22,20.46 22.14,21.3 22.79,21.85 22.32,20.6 22.09,19.67 "
     id="polygon234"
     style="fill:#000000;stroke:none"
     transform="matrix(1.0386236,0,0,1.0386236,-2.0772472,-2.0772472)" />
  <polygon
     points="22.83,19.44 22.97,20.32 23.53,21.62 23.53,20.69 23.2,19.9 22.83,19.44 "
     id="polygon236"
     style="fill:#000000;stroke:none"
     transform="matrix(1.0386236,0,0,1.0386236,-2.0772472,-2.0772472)" />
  <polygon
     points="31.51,19.07 31.04,18.75 30.26,18.56 29.33,18.93 28.68,19.35 27.94,20.09 28.63,18.93 29.51,18.42 30.72,18.23 32.11,18.79 31.51,19.07 "
     id="polygon238"
     style="fill:#000000;stroke:none"
     transform="matrix(1.0386236,0,0,1.0386236,-2.0772472,-2.0772472)" />
  <polygon
     points="27.24,20.37 26.73,21.02 26.13,21.06 25.43,21.71 24.69,21.95 24.08,21.81 24.13,20.88 23.85,19.49 24.27,20.18 24.36,21.02 24.41,21.57 25.01,21.57 25.66,21.16 26.08,20.69 26.68,20.74 27.24,20.37 "
     id="polygon240"
     style="fill:#000000;stroke:none"
     transform="matrix(1.0386236,0,0,1.0386236,-2.0772472,-2.0772472)" />
  <polygon
     points="59.76,20.04 60.09,20.97 59.86,22.04 58.98,22.97 58.19,23.43 56.93,23.38 55.73,23.06 55.22,22.6 54.29,22.36 53.55,21.71 52.53,21.34 51.88,20.88 49.84,20.69 49.7,20.04 51.41,20.28 52.25,20.55 52.85,21.2 53.64,21.48 54.43,22.04 55.54,22.55 56.38,23.06 57.68,23.11 58.74,22.73 59.53,21.81 59.72,21.02 59.21,20.09 58.51,19.63 57.95,19.86 57.31,19.3 57.68,19.16 58.14,19.53 58.56,19.3 59.25,19.86 59.76,20.04 "
     id="polygon242"
     style="fill:#000000;stroke:none"
     transform="matrix(1.0386236,0,0,1.0386236,-2.0772472,-2.0772472)" />
  <polygon
     points="58.84,20.04 58.93,20.79 58.79,21.67 58.14,22.18 58.6,20.93 58.84,20.04 "
     id="polygon244"
     style="fill:#000000;stroke:none"
     transform="matrix(1.0386236,0,0,1.0386236,-2.0772472,-2.0772472)" />
  <polygon
     points="58.09,19.77 57.91,20.65 57.4,21.95 57.4,21.02 57.72,20.23 58.09,19.77 "
     id="polygon246"
     style="fill:#000000;stroke:none"
     transform="matrix(1.0386236,0,0,1.0386236,-2.0772472,-2.0772472)" />
  <polygon
     points="49.42,19.44 49.88,19.07 50.67,18.88 51.6,19.3 52.25,19.67 52.94,20.42 52.29,19.3 51.41,18.75 50.21,18.61 48.81,19.12 49.42,19.44 "
     id="polygon248"
     style="fill:#000000;stroke:none"
     transform="matrix(1.0386236,0,0,1.0386236,-2.0772472,-2.0772472)" />
  <polygon
     points="53.69,20.69 54.2,21.34 54.8,21.39 55.5,22.04 56.24,22.27 56.84,22.13 56.79,21.2 57.07,19.81 56.66,20.51 56.56,21.34 56.52,21.95 55.91,21.95 55.26,21.53 54.85,21.02 54.24,21.06 53.69,20.69 "
     id="polygon250"
     style="fill:#000000;stroke:none"
     transform="matrix(1.0386236,0,0,1.0386236,-2.0772472,-2.0772472)" />
  <polygon
     points="27.89,47.55 27.94,45.14 29.24,43.33 31.18,41.89 33.69,41.1 36.38,41.57 38,43.79 38.38,46.25 38.24,48.99 36.66,50.29 34.62,50.19 31.28,49.78 29.24,48.99 27.89,47.55 "
     id="polygon252"
     style="fill:#00cccc;stroke:none"
     transform="matrix(1.0386236,0,0,1.0386236,-2.0772472,-2.0772472)" />
  <polygon
     points="29.1,45.7 30.35,44.03 33.23,42.77 35.73,43.19 37.22,45.23 36.8,47.41 35.08,48.85 32.58,48.71 29.98,47.83 29.1,45.7 "
     id="polygon254"
     style="fill:#00ffff;stroke:none"
     transform="matrix(1.0386236,0,0,1.0386236,-2.0772472,-2.0772472)" />
  <polygon
     points="33.55,55.07 34.01,57.2 35.78,60.26 37.03,63.28 37.17,67.87 37.08,84.75 37.54,91.76 37.86,94.49 38.7,94.68 38.79,64.48 36.94,60.45 33.55,55.07 "
     id="polygon256"
     style="fill:#006666;stroke:none"
     transform="matrix(1.0386236,0,0,1.0386236,-2.0772472,-2.0772472)" />
  <polygon
     points="34.25,58.96 34.11,79.6 34.34,87.21 35.55,94.21 36.61,94.35 35.5,84.01 35.73,64.34 35.17,61.28 34.25,58.96 "
     id="polygon258"
     style="fill:#006666;stroke:none"
     transform="matrix(1.0386236,0,0,1.0386236,-2.0772472,-2.0772472)" />
  <polygon
     points="32.2,54.04 31.51,59.05 31.28,71.72 31.65,82.9 32.85,91.34 34.01,92.92 33.27,86.47 32.71,74.78 32.2,54.04 "
     id="polygon260"
     style="fill:#006666;stroke:none"
     transform="matrix(1.0386236,0,0,1.0386236,-2.0772472,-2.0772472)" />
  <polygon
     points="30.95,52.84 29.51,56.74 28.49,61.28 28.21,66.48 28.96,82.76 29.56,87.21 31.04,88.83 30.39,80.99 29.51,66.43 31.42,52.75 30.95,52.84 "
     id="polygon262"
     style="fill:#006666;stroke:none"
     transform="matrix(1.0386236,0,0,1.0386236,-2.0772472,-2.0772472)" />
  <polygon
     points="27.98,52.98 26.5,55.58 25.89,57.89 25.43,62.21 27.1,86.24 28.35,87.54 27.43,78.63 26.96,64.02 26.96,58.27 28.21,54.6 29.51,52.75 27.98,52.98 "
     id="polygon264"
     style="fill:#006666;stroke:none"
     transform="matrix(1.0386236,0,0,1.0386236,-2.0772472,-2.0772472)" />
  <polygon
     points="33.92,53.16 33.46,54.88 33.74,56.09 34.62,57.25 35.45,58.59 36.75,60.49 37.54,62.86 37.86,65.5 37.96,70.79 37.77,74.87 37.68,81.09 37.68,85.82 37.86,89.67 38.38,94.12 39.67,99.55 40.18,97.14 39.67,91.71 39.35,84.29 39.07,75.94 39.16,65.69 38.75,62.9 37.86,60.68 36.33,58.45 34.85,56.27 34.15,55.25 34.43,53.35 33.92,53.16 "
     id="polygon266"
     style="fill:#000000;stroke:none"
     transform="matrix(1.0386236,0,0,1.0386236,-2.0772472,-2.0772472)" />
  <polygon
     points="34.66,58.87 35.45,60.96 35.96,63.79 36.06,66.89 36.15,73.02 36.15,77.24 36.15,82.66 36.43,86.28 36.98,91.11 37.54,95.1 38.47,98.44 37.68,97.6 36.43,95.1 35.64,90.36 35.13,85.96 35.03,78.77 35.36,67.4 35.17,62.77 34.25,58.54 34.66,58.87 "
     id="polygon268"
     style="fill:#000000;stroke:none"
     transform="matrix(1.0386236,0,0,1.0386236,-2.0772472,-2.0772472)" />
  <polygon
     points="32.81,53.44 32.81,55.76 33.04,58.96 33.13,63.69 33.13,69.03 33.13,75.06 33.36,80.58 33.46,85.17 34.25,89.9 35.45,95 36.57,97.74 34.34,94.49 33.32,91.11 32.58,86.24 32.48,81.41 32.39,76.4 32.39,71.3 32.25,65.92 32.44,60.35 32.25,57.15 32.11,54.88 32.2,53.07 32.81,53.44 "
     id="polygon270"
     style="fill:#000000;stroke:none"
     transform="matrix(1.0386236,0,0,1.0386236,-2.0772472,-2.0772472)" />
  <polygon
     points="31.65,52.93 31.04,56.46 30.35,60.59 30.21,65.18 30.3,70.19 30.35,74.22 30.72,79.32 30.95,83.36 31.74,88.6 32.81,92.78 34.43,97 32.11,93.43 30.44,87.91 29.75,82.94 29.75,78.54 29.75,73.71 29.33,68.01 29.24,64.62 29.84,59.38 30.91,55.16 31.14,52.65 31.65,52.93 "
     id="polygon272"
     style="fill:#000000;stroke:none"
     transform="matrix(1.0386236,0,0,1.0386236,-2.0772472,-2.0772472)" />
  <polygon
     points="29.42,53.26 28.31,55.44 27.7,57.48 27.19,59.89 27.29,64.02 27.33,69.72 27.89,76.36 28.21,80.86 28.49,84.75 29.24,88.46 30.3,91.71 32.34,96.21 29.93,93.19 28.63,89.67 27.61,84.06 27.19,78.86 26.82,72.74 26.31,65.78 26.59,59.29 27.1,56.09 28.12,54.28 29.14,52.75 29.42,53.26 "
     id="polygon274"
     style="fill:#000000;stroke:none"
     transform="matrix(1.0386236,0,0,1.0386236,-2.0772472,-2.0772472)" />
  <polygon
     points="26.68,53.02 25.48,54.97 24.69,57.15 24.5,60.07 24.69,64.57 25.2,70.79 25.8,77.75 26.31,81.37 26.92,86.19 28.91,93.52 26.73,87.77 25.52,82.99 24.78,76.31 24.41,69.72 23.76,63.09 23.57,58.45 23.9,56.36 24.5,54.97 26.08,52.93 26.68,53.02 "
     id="polygon276"
     style="fill:#000000;stroke:none"
     transform="matrix(1.0386236,0,0,1.0386236,-2.0772472,-2.0772472)" />
  <polygon
     points="38.84,60.12 39.4,62.72 39.77,76.22 40,87.67 40.6,98.25 41.3,96.91 40.09,61.79 38.84,60.12 "
     id="polygon278"
     style="fill:#006666;stroke:none"
     transform="matrix(1.0386236,0,0,1.0386236,-2.0772472,-2.0772472)" />
  <polygon
     points="34.99,53.12 35.22,55.34 35.92,57.29 37.22,58.78 39.07,60.86 39.77,62.58 39.95,67.36 40.14,73.06 40.32,77.28 40.32,80.11 40.46,85.31 40.46,90.23 41.21,99.87 41.85,99.5 41.39,94.49 41.07,85.17 40.83,79.88 40.6,62.86 40.93,61.7 41.81,60.26 43.53,58.36 45.33,55.3 46.08,53.67 44.27,53.49 44.73,54.14 44.41,55.48 43.94,56.92 43.01,58.27 41.62,59.33 40.7,60.45 40.46,54.79 39.86,54.32 39.44,55.11 39.21,54.42 38.7,54.97 38.65,54.42 37.86,55.11 37.96,56.09 38.42,55.44 38.38,56.32 38.89,55.67 38.84,56.46 39.44,55.85 39.81,57.2 39.81,58.87 38.42,58.5 39.72,59.98 40.37,60.96 40.23,61.7 39.35,60.26 37.86,58.82 36.94,57.76 35.96,56.55 35.55,55.16 35.36,53.49 34.99,53.12 "
     id="polygon280"
     style="fill:#000000;stroke:none"
     transform="matrix(1.0386236,0,0,1.0386236,-2.0772472,-2.0772472)" />
</svg>
